HIERARCHY
ROOT pelvis
{
  OFFSET 0 100 0
  CHANNELS 6 Xposition Yposition Zposition Zrotation Xrotation Yrotation
  JOINT pelvis_right_femur
  {
    OFFSET -10.78128 -3.44521 -0.5502486
    CHANNELS 3 Zrotation Xrotation Yrotation
    JOINT right_femur_tibia
    {
      OFFSET -0.8047443 -44.0398 -0.1307829
      CHANNELS 3 Zrotation Xrotation Yrotation
      JOINT right_tibia_foot
      {
        OFFSET 3.006224 -47.83518 -5
        CHANNELS 3 Zrotation Xrotation Yrotation
        End Site
        {
          OFFSET 0 -5 15
        }
      }
    }
  }
  JOINT pelvis_left_femur
  {
    OFFSET 10.78128 -3.44521 -0.5502486
    CHANNELS 3 Zrotation Xrotation Yrotation
    JOINT left_femur_tibia
    {
      OFFSET 0.8047443 -44.0398 -0.1307829
      CHANNELS 3 Zrotation Xrotation Yrotation
      JOINT left_tibia_foot
      {
        OFFSET -4.370144 -48.10324 -4.275266
        CHANNELS 3 Zrotation Xrotation Yrotation
        End Site
        {
          OFFSET 0 -5 15
        }
      }
    }
  }
  JOINT pelvis_spine1
  {
    OFFSET 0 6.468898 -3.129235
    CHANNELS 3 Zrotation Xrotation Yrotation
    JOINT spine1
    {
      OFFSET 0 23.15396 4.99043
      CHANNELS 3 Zrotation Xrotation Yrotation
      JOINT spine2
      {
        OFFSET 0 20.79997 -5.064912
        CHANNELS 3 Zrotation Xrotation Yrotation
        JOINT neck
        {
          OFFSET 0 14.38658 9.616178
          CHANNELS 3 Zrotation Xrotation Yrotation
          End Site
          {
            OFFSET 0 20 0
          }
        }
      }
      JOINT right_manubrium
      {
        OFFSET -5.722621 16.35077 3.967754
        CHANNELS 3 Zrotation Xrotation Yrotation
        JOINT right_clavicle
        {
          OFFSET -13.16364 1.694482 -4.693211
          CHANNELS 3 Zrotation Xrotation Yrotation
          JOINT right_humerus
          {
            OFFSET -28.5034 -0.3100689 -2.792744
            CHANNELS 3 Zrotation Xrotation Yrotation
            JOINT right_radius
            {
              OFFSET -25.15693 0.02248979 -1.271978
              CHANNELS 3 Zrotation Xrotation Yrotation
              End Site
              {
                OFFSET -15 0 0
              }
            }
          }
        }
      }
      JOINT left_manubrium
      {
        OFFSET 5.722621 16.35077 3.967754
        CHANNELS 3 Zrotation Xrotation Yrotation
        JOINT left_clavicle
        {
          OFFSET 13.16364 1.694482 -4.693211
          CHANNELS 3 Zrotation Xrotation Yrotation
          JOINT left_humerus
          {
            OFFSET 29.39168 -1.063119 -2.237045
            CHANNELS 3 Zrotation Xrotation Yrotation
            JOINT left_radius
            {
              OFFSET 24.59957 -0.9528479 0.9047498
              CHANNELS 3 Zrotation Xrotation Yrotation
              End Site
              {
                OFFSET 15 -0 -0
              }
            }
          }
        }
      }
    }
  }
}
MOTION
Frames: 13
Frame Time: 0.0416666666667
0 103.5113 0 1.147686 -0.7679804 0.03329352 3.130787 -16.94015 8.236781 -0 36.17062 -0 -5.075066 -15.9279 -3.463143 -7.08835 11.93527 -23.41572 -0 4.895773 -0 5.964416 -18.3469 25.2644 -2.687337 -3.339287 3.353922 3.645707 7.777392 -9.454305 0.5938031 19.42224 9.251081 4.906222 -26.59179 9.571183 6.84985 -17.12825 12.29723 82.20877 31.66208 -17.40343 -0 0 17.73011 -11.09513 11.37974 5.605422 9.3442 -21.2572 5.480455 -94.53115 18.45313 20.39973 0 0 -5.984341 12.61469 19.61434 -4.177914
0.2230874 103.3948 1.577821 0.3750765 -0.221299 -0.06993254 4.227701 -19.74855 8.788906 -0 36.21038 -0 -5.070841 -14.69656 -3.929528 -6.417579 11.88497 -23.04171 -0 5.636729 -0 3.984885 -19.90052 24.47232 -2.569537 -3.222701 3.374136 3.71619 7.759013 -9.554188 0.5518741 19.21361 9.410105 4.938793 -27.03794 9.765487 6.646621 -17.31734 12.26741 82.71751 31.87893 -17.88337 -0 0 17.5577 -10.67458 11.22523 5.453516 9.394091 -21.40005 5.345532 -94.16515 18.52921 19.98322 0 0 -7.524606 12.6017 18.9183 -4.00522
0.4401428 103.0966 3.482381 -0.2488381 0.5688806 -0.1698507 5.253822 -24.09234 8.267589 -0 32.9727 -0 -5.601837 -12.46167 -3.711219 -5.971418 12.11191 -21.86803 -0 5.875919 -0 4.101046 -21.22883 23.76841 -2.473763 -2.841719 3.087828 3.671728 7.819583 -9.5405 0.3841717 19.24605 9.504118 5.062449 -26.53244 9.404716 6.504586 -16.98223 12.44285 83.54092 31.65818 -18.62039 -0 0 15.8159 -11.95667 11.51413 6.63866 9.482489 -22.08273 4.164805 -92.72953 18.68046 18.14991 0 0 -11.17795 12.10499 18.08242 -3.023686
0.6511027 102.5912 5.735672 -0.6681338 1.485626 -0.2141567 6.106438 -28.05144 7.900891 -0 29.19165 -0 -5.859779 -10.4691 -3.438487 -5.740882 12.37996 -20.81265 -0 6.023852 -0 4.680513 -22.26999 23.25938 -2.387197 -2.590306 2.972902 3.682883 7.823858 -9.573723 0.2920648 19.16233 9.611848 5.117642 -26.50842 9.339409 6.31618 -16.92327 12.49107 84.18797 31.76775 -19.16764 -0 0 14.90645 -12.31486 11.54211 7.116041 9.496324 -22.43685 3.524678 -91.79352 18.79621 17.0344 0 0 -13.75997 11.86642 17.2321 -2.469632
0.850027 101.8594 8.435234 -0.9639179 2.455486 -0.1383237 6.787484 -31.74025 7.323372 -0 24.645 -0 -6.140153 -8.359619 -3.004162 -5.643296 12.86054 -19.68303 -0 6.363225 -0 5.391383 -23.12357 22.59007 -2.309027 -2.375559 2.840074 3.679264 7.831662 -9.601282 0.2120623 19.1081 9.686889 5.172162 -26.37102 9.226666 6.15671 -16.80317 12.53135 84.75546 31.74083 -19.69249 -0 0 14.00964 -12.79436 11.6243 7.618089 9.543294 -22.80201 2.917207 -90.90858 18.88014 15.92074 0 0 -16.08876 11.62994 16.53332 -1.945855
1.034801 100.9609 11.6573 -1.224341 3.373863 0.1133488 7.376121 -34.68215 6.735736 -0 20.27874 -0 -6.467918 -6.314916 -2.530084 -5.580317 13.51231 -18.58993 -0 7.308161 -0 5.679954 -23.64823 21.56564 -2.271479 -2.179166 2.756387 3.67181 7.838622 -9.605404 0.1511112 19.07934 9.735805 5.193793 -26.28123 9.154582 6.018877 -16.73788 12.55893 85.21608 31.87082 -20.03704 -0 0 13.31311 -13.11782 11.64539 8.010764 9.49627 -23.02704 2.405255 -90.16377 18.97052 15.07246 0 0 -17.96158 11.42987 15.85773 -1.510695
1.208134 100.0183 15.48483 -1.535531 4.1072 0.5853493 7.910302 -36.4445 6.165495 -0 16.78966 -0 -6.938584 -4.474618 -2.068476 -5.437366 14.29189 -17.51322 -0 9.29799 -0 5.033463 -23.61399 19.85489 -2.256161 -2.002111 2.687416 3.653684 7.854999 -9.594031 0.1007753 19.07961 9.760588 5.201799 -26.16271 9.076967 5.906428 -16.67359 12.58444 85.60099 32.00695 -20.28943 -0 0 12.70336 -13.43995 11.66512 8.377637 9.416372 -23.19509 1.937052 -89.51075 19.05685 14.35848 0 0 -19.51004 11.23476 15.26074 -1.112512
1.379113 99.2177 19.98012 -1.962916 4.564612 1.281877 8.439458 -36.60504 5.722918 -0 14.8387 -0 -7.538987 -3.107195 -1.70764 -5.099906 15.03062 -16.44786 -0 12.75615 -0 3.055321 -22.67375 17.24601 -2.265209 -1.836549 2.642614 3.626857 7.883529 -9.564956 0.05967693 19.10643 9.765368 5.193168 -26.04207 9.00632 5.81539 -16.62923 12.60988 85.92014 32.19505 -20.43801 -0 0 12.19242 -13.72565 11.66824 8.707696 9.284966 -23.2901 1.508288 -88.9501 19.14954 13.80471 0 0 -20.74839 11.04403 14.70585 -0.7477234
1.559103 98.77389 25.16116 -2.512078 4.749054 2.125629 8.975258 -34.98515 5.512598 -0 14.61265 -0 -8.127206 -2.437756 -1.544191 -4.492924 15.40267 -15.32939 -0 18.03719 -0 -0.2210154 -20.40681 13.85293 -2.290473 -1.683287 2.613572 3.590911 7.925218 -9.522792 0.02541778 19.15559 9.753643 5.174171 -25.90799 8.934276 5.742875 -16.59384 12.63639 86.18734 32.39238 -20.51515 -0 0 11.75252 -14.00669 11.66802 9.016909 9.123437 -23.33786 1.109115 -88.46792 19.24568 13.37203 0 0 -21.73105 10.85062 14.20259 -0.4021891
1.752484 98.86045 30.95758 -3.102076 4.751544 2.921813 9.479493 -31.81527 5.62617 -0 15.67209 -0 -8.492576 -2.555096 -1.645153 -3.642908 14.85508 -14.0638 -0 25.32468 -0 -3.971038 -16.53822 10.41445 -2.328976 -1.540628 2.600291 3.546752 7.979944 -9.468978 -0.00307462 19.22337 9.728259 5.146308 -25.76573 8.862309 5.685519 -16.56943 12.6641 86.41074 32.59797 -20.53034 -0 0 11.37783 -14.28131 11.66398 9.306357 8.935389 -23.34355 0.7361743 -88.05782 19.34673 13.05136 0 0 -22.48915 10.65309 13.7416 -0.0706791
1.950218 99.5018 37.15256 -3.534269 4.507226 3.371956 9.784077 -27.59636 5.93008 -0 17.04243 -0 -8.650624 -3.475977 -1.931306 -2.75915 12.67736 -12.64702 -0 34.43514 -0 -6.718566 -11.48991 8.150377 -2.376488 -1.408591 2.599525 3.494839 8.046214 -9.406006 -0.02685399 19.30594 9.691734 5.112438 -25.6139 8.788469 5.640324 -16.55267 12.69269 86.59755 32.79621 -20.49862 -0 0 11.05728 -14.55844 11.65972 9.581222 8.730973 -23.31864 0.3865725 -87.71133 19.45129 12.82308 0 0 -23.05762 10.44931 13.3229 0.2527212
2.147425 100.5073 43.36548 -3.475983 3.489427 3.224639 9.501055 -22.52128 5.824916 -0 17.60288 -0 -9.034211 -5.293241 -2.137981 -2.272499 8.45767 -11.356 -0 44.45471 -0 -7.483484 -6.822625 7.851766 -2.430183 -1.286723 2.609723 3.435962 8.122148 -9.335577 -0.04659952 19.39982 9.646228 5.074272 -25.45422 8.712836 5.60452 -16.54277 12.72162 86.75304 32.98119 -20.42928 -0 0 10.78478 -14.8397 11.65594 9.843469 8.516199 -23.2697 0.05894118 -87.42163 19.55864 12.67413 0 0 -23.46479 10.23883 12.94288 0.5711324
2.36971 101.6223 49.22211 -2.665216 1.297231 2.578687 8.316905 -16.34591 4.833049 -0 16.72232 -0 -9.785562 -7.722234 -2.047395 -2.546522 2.650969 -10.51167 -0 53.59421 -0 -6.7951 -4.269093 9.033324 -2.487239 -1.174918 2.628701 3.371075 8.205221 -9.259685 -0.06289014 19.50142 9.593897 5.033628 -25.2878 8.635344 5.575554 -16.53814 12.75015 86.8819 33.14574 -20.33206 -0 0 10.55412 -15.12696 11.65364 10.0949 8.297928 -23.20378 -0.2473884 -87.18157 19.66728 12.58981 0 0 -23.73876 10.02195 12.59951 0.8864913
